<?xml version="1.0" standalone="no"?>
<!DOCTYPE svg PUBLIC "-//W3C//DTD SVG 20010904//EN"
 "http://www.w3.org/TR/2001/REC-SVG-20010904/DTD/svg10.dtd">
<svg version="1.0" xmlns="http://www.w3.org/2000/svg"
 width="746.000000pt" height="746.000000pt" viewBox="0 0 746.000000 746.000000"
 preserveAspectRatio="xMidYMid meet">

<g transform="translate(0.000000,746.000000) scale(0.100000,-0.100000)"
fill="#d1f5ff" stroke="none">
<path d="M4026 7261 c-4 -5 -8 -85 -11 -178 -3 -92 -7 -208 -10 -258 -3 -63
-1 -85 6 -73 5 10 14 95 18 189 6 100 14 176 20 182 15 15 42 -2 166 -107 56
-48 110 -102 120 -120 20 -38 20 -39 -30 -121 -14 -22 -25 -46 -25 -53 0 -7
29 -42 65 -76 59 -57 65 -66 65 -103 0 -51 -27 -86 -91 -118 -27 -14 -49 -31
-49 -39 0 -18 96 -108 161 -149 122 -77 247 -94 359 -48 66 27 203 117 244
160 42 43 28 65 -83 130 -136 80 -139 93 -41 191 83 83 108 128 119 221 7 54
18 85 49 137 39 65 87 120 97 111 8 -9 34 -123 45 -197 11 -83 2 -117 -49
-179 -27 -33 -29 -38 -15 -57 28 -40 17 -183 -21 -281 -7 -18 -5 -17 19 4 20
19 29 22 38 13 19 -19 -7 -164 -39 -224 -69 -127 -238 -226 -475 -277 -149
-32 -247 -41 -529 -51 -282 -9 -326 -16 -349 -60 -6 -12 -16 -99 -21 -193 -5
-95 -17 -246 -25 -337 -58 -629 -7 -1166 145 -1514 29 -65 110 -188 121 -181
5 3 -3 40 -17 83 -87 273 -124 515 -144 960 -22 487 23 885 107 951 28 22 51
26 274 46 328 29 593 100 846 225 199 99 231 143 221 312 -5 89 -32 170 -62
182 -21 8 -18 29 5 44 11 7 20 16 20 21 0 5 -9 11 -20 14 -29 7 -25 34 8 51
25 14 25 15 5 16 -12 0 -24 4 -28 9 -3 6 0 73 6 150 16 206 -12 516 -50 554
-17 17 -47 -3 -173 -117 l-117 -106 -252 0 -251 0 -102 74 c-55 41 -131 101
-168 135 -63 58 -90 72 -102 52z m643 -612 c38 -14 48 -46 27 -87 -20 -39 -53
-62 -88 -62 -33 0 -34 1 -43 76 -7 61 -6 62 22 72 37 14 45 14 82 1z m53 -311
c-9 -9 -15 -9 -24 0 -9 9 -7 12 12 12 19 0 21 -3 12 -12z"/>
<path d="M3130 6814 c-469 -50 -800 -192 -1064 -456 -59 -60 -106 -112 -103
-115 13 -13 46 11 81 59 42 59 92 100 181 150 213 119 538 210 890 249 125 13
468 6 528 -11 60 -18 54 -33 -71 -180 -102 -120 -159 -276 -181 -494 -14 -136
-14 -615 -1 -876 47 -933 177 -1348 499 -1592 126 -95 309 -163 299 -111 -2
12 -17 20 -46 25 -121 20 -292 180 -381 357 -68 132 -135 425 -170 736 -41
358 -45 461 -46 975 0 485 1 509 22 605 14 61 39 133 64 185 37 75 56 100 165
206 68 67 124 129 124 137 0 20 -21 31 -129 69 -110 38 -338 86 -444 92 -45 3
-143 -2 -217 -10z"/>
<path d="M4433 2640 c-110 -23 -156 -73 -156 -170 0 -100 42 -144 181 -191 47
-16 62 -25 62 -40 0 -37 -93 -37 -192 1 l-48 18 0 -79 c0 -77 1 -80 27 -90 61
-23 184 -33 256 -21 124 22 177 74 177 176 0 108 -36 152 -154 187 -39 12 -77
27 -85 35 -12 11 -10 15 13 25 26 12 100 5 174 -17 21 -6 22 -4 22 69 l0 76
-37 11 c-54 15 -191 21 -240 10z"/>
<path d="M2540 2355 l0 -285 110 0 110 0 0 105 0 105 105 0 105 0 0 80 0 80
-105 0 -105 0 0 25 0 25 120 0 120 0 0 75 0 75 -230 0 -230 0 0 -285z"/>
<path d="M3040 2355 l0 -285 230 0 230 0 0 75 0 75 -120 0 -120 0 0 30 0 30
105 0 105 0 0 80 0 80 -105 0 -105 0 0 25 0 25 120 0 120 0 0 75 0 75 -230 0
-230 0 0 -285z"/>
<path d="M3530 2355 l0 -285 225 0 225 0 0 80 0 80 -115 0 -115 0 0 205 0 205
-110 0 -110 0 0 -285z"/>
<path d="M4010 2355 l0 -285 110 0 110 0 0 285 0 285 -110 0 -110 0 0 -285z"/>
<path d="M1453 1570 c-110 -23 -156 -73 -156 -170 0 -100 42 -144 181 -191 47
-16 62 -25 62 -40 0 -37 -93 -37 -192 1 l-48 18 0 -79 c0 -77 1 -80 27 -90 61
-23 184 -33 256 -21 124 22 177 74 177 176 0 108 -36 152 -154 187 -39 12 -77
27 -85 35 -12 11 -10 15 13 25 26 12 100 5 174 -17 21 -6 22 -4 22 69 l0 76
-37 11 c-54 15 -191 21 -240 10z"/>
<path d="M3793 1570 c-110 -23 -156 -73 -156 -170 0 -100 42 -144 181 -191 47
-16 62 -25 62 -40 0 -37 -93 -37 -192 1 l-48 18 0 -79 c0 -77 1 -80 27 -90 61
-23 184 -33 256 -21 124 22 177 74 177 176 0 108 -36 152 -154 187 -39 12 -77
27 -85 35 -12 11 -10 15 13 25 26 12 100 5 174 -17 21 -6 22 -4 22 69 l0 76
-37 11 c-54 15 -191 21 -240 10z"/>
<path d="M5663 1570 c-110 -23 -156 -73 -156 -170 0 -100 42 -144 181 -191 47
-16 62 -25 62 -40 0 -37 -93 -37 -192 1 l-48 18 0 -79 c0 -77 1 -80 27 -90 61
-23 184 -33 256 -21 124 22 177 74 177 176 0 108 -36 152 -154 187 -39 12 -77
27 -85 35 -12 11 -10 15 13 25 26 12 100 5 174 -17 21 -6 22 -4 22 69 l0 76
-37 11 c-54 15 -191 21 -240 10z"/>
<path d="M1810 1285 l0 -285 110 0 110 0 0 285 0 285 -110 0 -110 0 0 -285z"/>
<path d="M2090 1285 l0 -285 225 0 225 0 0 80 0 80 -115 0 -115 0 0 205 0 205
-110 0 -110 0 0 -285z"/>
<path d="M2450 1563 c0 -5 48 -133 107 -285 l108 -278 111 0 111 0 110 285
110 285 -111 0 -112 0 -38 -117 c-22 -65 -47 -136 -56 -158 l-17 -40 -52 158
-53 157 -109 0 c-60 0 -109 -3 -109 -7z"/>
<path d="M3160 1285 l0 -285 230 0 230 0 0 75 0 75 -120 0 -120 0 0 30 0 30
105 0 105 0 0 80 0 80 -105 0 -105 0 0 25 0 25 120 0 120 0 0 75 0 75 -230 0
-230 0 0 -285z"/>
<path d="M4120 1495 l0 -74 73 -3 72 -3 3 -207 2 -208 105 0 105 0 0 210 0
210 75 0 75 0 0 75 0 75 -255 0 -255 0 0 -75z"/>
<path d="M4660 1285 l0 -285 110 0 110 0 0 70 c0 42 4 70 10 70 6 0 25 -31 43
-70 l32 -69 112 -1 113 0 -26 58 c-14 31 -33 71 -44 89 l-18 31 29 28 c83 79
90 209 18 298 -46 55 -98 66 -311 66 l-178 0 0 -285z m308 103 c7 -7 12 -21
12 -33 0 -31 -19 -45 -62 -45 l-38 0 0 45 0 45 38 0 c21 0 43 -5 50 -12z"/>
<path d="M5250 1285 l0 -285 110 0 110 0 0 285 0 285 -110 0 -110 0 0 -285z"/>
<path d="M1360 438 c0 -7 9 -51 20 -98 11 -47 22 -95 25 -107 4 -16 13 -23 29
-23 20 0 26 10 46 78 l23 77 19 -65 c10 -36 21 -71 23 -78 3 -7 15 -12 27 -10
20 3 25 15 43 93 12 50 25 102 28 118 7 24 5 27 -17 27 -22 0 -26 -7 -41 -75
-9 -41 -18 -75 -20 -75 -3 0 -14 34 -26 75 -16 54 -27 75 -39 75 -12 0 -21
-20 -35 -75 -10 -41 -22 -75 -25 -75 -4 0 -14 33 -21 73 -12 62 -18 72 -37 75
-13 2 -22 -2 -22 -10z"/>
<path d="M1690 330 l0 -120 25 0 25 0 0 120 0 120 -25 0 -25 0 0 -120z"/>
<path d="M1780 330 l0 -120 85 0 c78 0 85 2 85 20 0 18 -7 20 -60 20 l-60 0 0
100 0 100 -25 0 -25 0 0 -120z"/>
<path d="M1980 330 l0 -120 60 0 c106 0 150 35 150 120 0 85 -44 120 -150 120
l-60 0 0 -120z m140 60 c13 -13 20 -33 20 -60 0 -51 -27 -80 -75 -80 l-35 0 0
80 0 80 35 0 c22 0 43 -8 55 -20z"/>
<path d="M2355 436 c-39 -17 -58 -54 -58 -110 1 -54 24 -91 65 -105 59 -21
128 -10 128 20 0 16 -6 17 -48 12 -65 -7 -97 17 -97 77 0 60 32 84 97 77 42
-5 48 -4 48 12 0 30 -81 41 -135 17z"/>
<path d="M2552 337 c-23 -63 -42 -117 -42 -120 0 -4 10 -7 23 -7 16 0 26 9 34
31 11 28 15 30 55 27 35 -2 45 -8 56 -30 9 -19 21 -28 37 -28 l24 0 -25 68
c-14 37 -35 91 -46 120 -17 45 -23 52 -46 52 -26 0 -30 -7 -70 -113z m91 16
l17 -43 -35 0 c-19 0 -35 4 -35 9 0 12 31 84 34 80 1 -2 10 -23 19 -46z"/>
<path d="M2740 430 c0 -16 7 -20 35 -20 l35 0 0 -100 0 -100 25 0 25 0 0 100
0 100 35 0 c28 0 35 4 35 20 0 19 -7 20 -95 20 -88 0 -95 -1 -95 -20z"/>
<path d="M3030 430 c0 -16 7 -20 35 -20 l35 0 0 -100 0 -100 25 0 25 0 0 100
0 100 35 0 c28 0 35 4 35 20 0 19 -7 20 -95 20 -88 0 -95 -1 -95 -20z"/>
<path d="M3304 444 c-71 -16 -93 -155 -33 -210 15 -14 36 -19 81 -19 53 0 63
3 84 28 34 39 35 134 2 172 -23 26 -86 39 -134 29z m91 -54 c11 -12 18 -35 18
-60 0 -95 -105 -112 -128 -20 -7 28 9 80 28 92 22 14 64 8 82 -12z"/>
<path d="M3635 436 c-39 -17 -58 -54 -58 -110 1 -54 24 -91 65 -105 59 -21
128 -10 128 20 0 16 -6 17 -48 12 -65 -7 -97 17 -97 77 0 60 32 84 97 77 42
-5 48 -4 48 12 0 30 -81 41 -135 17z"/>
<path d="M3864 444 c-71 -16 -93 -155 -33 -210 15 -14 36 -19 81 -19 53 0 63
3 84 28 34 39 35 134 2 172 -23 26 -86 39 -134 29z m91 -54 c11 -12 18 -35 18
-60 0 -95 -105 -112 -128 -20 -7 28 9 80 28 92 22 14 64 8 82 -12z"/>
<path d="M4060 361 c0 -81 3 -93 24 -118 21 -25 31 -28 81 -28 50 0 60 3 81
28 21 25 24 37 24 118 0 88 0 89 -25 89 -25 0 -25 -1 -25 -90 0 -78 -2 -91
-19 -100 -28 -14 -57 -12 -75 6 -12 12 -16 36 -16 100 0 83 0 84 -25 84 -25 0
-25 -1 -25 -89z"/>
<path d="M4310 330 l0 -120 25 0 c23 0 24 3 27 78 l3 77 54 -77 c42 -59 60
-78 78 -78 23 0 23 1 23 120 l0 120 -25 0 c-23 0 -24 -2 -27 -80 l-3 -79 -55
79 c-41 59 -61 79 -77 80 -23 0 -23 -2 -23 -120z"/>
<path d="M4550 430 c0 -16 7 -20 35 -20 l35 0 0 -100 0 -100 25 0 25 0 0 100
0 100 35 0 c28 0 35 4 35 20 0 19 -7 20 -95 20 -88 0 -95 -1 -95 -20z"/>
<path d="M4770 331 l0 -121 25 0 c23 0 25 4 25 40 0 37 2 40 28 40 24 0 32 -7
47 -40 14 -30 24 -40 42 -40 28 0 28 1 2 51 l-20 41 20 15 c15 10 21 25 21 52
0 63 -17 75 -109 79 l-81 4 0 -121z m138 45 c4 -34 -10 -46 -55 -46 -32 0 -33
1 -33 41 l0 40 43 -3 c38 -3 42 -6 45 -32z"/>
<path d="M4980 444 c0 -3 18 -36 40 -74 31 -53 40 -79 40 -114 0 -42 2 -46 25
-46 23 0 25 4 25 46 0 37 9 63 40 116 22 39 40 72 40 74 0 2 -11 4 -23 4 -18
0 -30 -12 -52 -51 l-28 -52 -18 24 c-10 13 -24 36 -30 52 -8 19 -19 27 -35 27
-13 0 -24 -3 -24 -6z"/>
<path d="M5231 437 c-61 -31 -42 -93 37 -121 44 -15 52 -23 50 -40 -3 -19 -9
-21 -60 -20 -50 1 -58 -1 -58 -17 0 -36 113 -38 152 -2 30 27 23 70 -14 93
-18 11 -40 20 -49 20 -8 0 -24 6 -34 14 -17 12 -18 16 -5 31 11 14 24 16 62
12 42 -5 48 -4 48 12 0 31 -83 42 -129 18z"/>
<path d="M5410 330 l0 -120 25 0 25 0 0 120 0 120 -25 0 -25 0 0 -120z"/>
<path d="M5500 330 l0 -120 60 0 c106 0 150 35 150 120 0 85 -44 120 -150 120
l-60 0 0 -120z m140 60 c13 -13 20 -33 20 -60 0 -51 -27 -80 -75 -80 l-35 0 0
80 0 80 35 0 c22 0 43 -8 55 -20z"/>
<path d="M5750 330 l0 -120 85 0 c78 0 85 2 85 20 0 18 -7 20 -60 20 l-60 0 0
30 c0 30 1 30 55 30 48 0 55 2 55 20 0 18 -7 20 -55 20 -54 0 -55 0 -55 30 l0
30 60 0 c53 0 60 2 60 20 0 18 -7 20 -85 20 l-85 0 0 -120z"/>
</g>
</svg>
